<?xml version="1.0" encoding="utf-8"?>
<!-- Generator: Adobe Illustrator 24.1.2, SVG Export Plug-In . SVG Version: 6.00 Build 0)  -->
<svg version="1.1" id="b8f16da0-bba9-403d-afaa-311c8d240d0e" xmlns="http://www.w3.org/2000/svg"
	xmlns:xlink="http://www.w3.org/1999/xlink" x="0px" y="0px" viewBox="0 0 537.3 631.9"
	style="enable-background:new 0 0 537.3 631.9;" xml:space="preserve">
	<style type="text/css">
		.st0 {
			fill: rgba(0, 0, 0, 0);
		}

		.st1 {
			fill: #4a7382;
		}
	</style>
	<path class="st0" d="M107.7,191.4c0.3,0.3,0.7,0.6,1,0.8c-2.3,10.4-4.5,20.8-6.8,31.3c-5.4,4.7-31.9,15.7-30.4,21.4
	c0,37.2,0.2,74.3,0.2,111.5c-0.1,2,1,3.9,2.8,4.7c32.1,18.8,63.6,38.6,96.1,56.6c-4.3,2.2-8.6,4.4-12.9,6.5
	c-3.8,1.9-14.2,17.3-14.6,21.7c-15.3,6.7-30.5,13.8-45.8,20.4c-5.1,5.6-9.6,1.5-14.1-1C71.8,459,60.5,452.5,49,446.4
	c-3.3-1.8-3.4-4-3.4-7.2c0.1-28.1,0.1-56.2,0.1-84.3c0-48.6,0-97.1,0-145.7c0-2.2,0.5-3.5,2.6-4.7c15.6-8.2,30.3-19,46.3-26.1
	c-7.2,14.8-15,29.1-21.2,44.5C86.1,213.8,96.7,202.4,107.7,191.4z" />
	<path class="st0" d="M427.7,193.6c16.1,16.5,32.7,34.6,53.8,44.3c2.6,2.8,5.9,4.9,9.6,6c-0.1,65-0.1,129.9-0.1,194.9
	c0,4.6-1.4,7-5.4,9.1c-10,3.8-33.1,22.1-41.4,20.5c-15.3-7-30.7-13.8-45.5-21.8c-3.8-14.1-15.6-23.6-28.2-29.8
	c25.5-16.2,51.5-31.4,77.3-46.9c5.1-4.1,14.2-6.1,16-12.9c0.1-37.4,0.2-74.9,0.1-112.3c0-1.3-0.6-2.5-1.5-3.3
	c-10.2-5.8-19.8-13.8-30.6-18C430.4,213.6,429,203.6,427.7,193.6z" />
	<path class="st0" d="M490,240.9c-11.2-18.1-22.5-36.1-33.7-54.2c10.9,6.1,21.8,12.1,32.4,18.7c0.9,0.6,2,1.8,2,2.7
	C490.4,219,491.3,230.2,490,240.9z" />
	<path class="st1" d="M107.7,191.4l30.5-31.9c-7.1,51.4,0.4,101.6,20.5,150.1c-2.1-19.8-10.6-38.5-9.8-58.6
	c0.1-14.7-0.3-29.5-0.2-44.2c0.2-29.3,14.5-55.3,27.2-80.9l0.8,0.3c-1.6,17.5-3.3,35-4.9,52.6c3.3-0.3,5.3-1.6,6.8-4.9
	c8.2-16.9,17-33.3,29.6-47.4c-0.6,14-1.1,27.3-1.6,40.5l0.9,0.1c8.2-27.5,12.6-56.6,26.8-82l-1.5-0.8c-5.1,6.7-10.2,13.5-15.8,20.8
	c8-18.5,21-34.5,37.4-46.2l-0.5-1.5c-44.4-1.7-87.5,13.9-131.7,16.2C183.8,52.1,249.5,19.1,312,56c-9.9-18.6-40.8-24.7-61.1-26.9
	c6.1-2.3,12.4-10.2,19.2-8.3c16.3,9.8,32.5,19.8,48.7,29.6C337,34.5,357,20.5,370.7,0c-4.2,20.7-12.7,39.3-27.5,54.5
	c13,0.6,26.1-1.6,38.6,1.5c-11.9,2.5-23.5,6.3-34.6,11.2c55.3,22.6,102.7,59.2,155.1,87.4c10.7,6.3,21.5,12.5,32.3,18.6
	c1.7,0.7,2.7,2.5,2.6,4.3c-0.1,97.3-0.1,194.5,0,291.8c-68.9,49.7-150.7,89.8-223.8,136.3c-14.1,8.4-28.3,16.8-42.3,25.4
	c-2.2,1.4-3.7,1.1-5.7-0.1C192.2,587.1,119,543.5,45.7,499.8c-14-8.3-28.1-16.6-42.2-24.7c-2.5-1.4-3.6-3-3.6-6.1
	C0,390.6,0,312.2,0,233.8c0-18.9-0.1-37.7-0.1-56.6c0.2-1.5,1-2.7,2.3-3.5C62,141,119.5,103.6,181.6,75.4
	c-40.8,23.4-64.9,63.3-87.1,103.1c-16,7.1-30.7,17.9-46.3,26.1c-2.1,1.2-2.6,2.5-2.6,4.7c0.1,48.6,0.1,97.1,0,145.7
	c0,28.1,0.1,56.2-0.1,84.3c0,3.2,0.1,5.5,3.4,7.2c11.5,6.1,22.8,12.7,34.2,18.9c4.5,2.5,9,6.6,14.1,1c15.3-6.6,30.6-13.6,45.8-20.4
	c13.5,0.9,13.7-16.1,29.6-17.3c1.3-0.4,2.4-1.3,3.2-2.4c5.4-5.3,8.3-15,16-17.1c11.5-0.4,22.1,0.2,33.8-0.6
	c-1.2-7.9-4.2-13.3-9.1-19.1c-18.5-25.4-35.8-52.4-54.9-77v22l-0.5,0.2c-13.4-28.1-26.9-56.1-40.5-84.6l-9.5,38
	c-5.5-36.8-2.9-72.4,10.9-106.9l-1.1-0.5L108.8,192L107.7,191.4z M456.3,186.7c-23.8-35-37.2-80.4-78.5-99.1
	c44.5,43.1,63.7,103.9,103.6,150.4c-26.3-13.6-49.5-36-64.7-61.4l-1,0.4c9.7,33.9,8.5,68.3,6,102.9c-1.6-9.1-3.2-18.1-4.8-27.2
	c-6.9,16.7-9.9,35.4-15.6,52.7c-3.3,14.5-11.2,28.4-9.8,43.5l1.6,0.1c10.8-20.8,15.8-43.6,22.9-65.5l8.4,25.1l1.6-0.1
	c4.3-28.2,6.9-56.4,5.7-85c3.8,1,33.6,18,32.1,21.3c-1.9,38.3,3.9,79.5-2.3,116.5c-29.9,19.3-61.2,36.4-91.1,55.6
	c-15.5-18.3-10.2-18-34.8-17.3c12.4-15.7,23.1-31.1,33.6-48.4c2.2,7.7,4.2,14.8,6.3,22.2c11.2-17.4,18.7-46.6,14.3-59.2
	c-4.8,14.5-9.3,28.1-14,42.5c-0.9-8.9-1.6-16.8-2.5-25.3c-15.2,19.9-26.3,41.9-42.7,60.8c1-3.6,1.7-6.6,2.5-9.5
	c-6.4,3.5-8.9,11.5-13.8,16.6c-2.4,2.9-2.7,5.9-2.1,9.5c47.5,1,24.5-6.5,53.4,19.9c5.7,2.1,10.9,4.5,14.3,9.9
	c3.1,4.9,7.9,7.2,13.6,8c14.8,8,30.3,14.7,45.5,21.8c1.6,0.6,3.5,0.6,5.1-0.1c12.2-6.7,24.1-13.8,36.4-20.3c4-2.1,5.4-4.5,5.4-9.1
	c-1.1-65.9,1.9-132.4-1-198c1.2-10.7,0.4-21.9,0.7-32.8c0-0.9-1.1-2.1-2-2.7C478.2,198.8,467.2,192.9,456.3,186.7L456.3,186.7z
	 M306.7,307l0.3-1.3c35.9-0.2,86,7.2,90.2-41.7c-1.1-22.8,7.7-56.7-9.8-73.7c7.9,21.9,4.8,45.4,5,68.2c-3.6,50-60.5,37.3-95.4,38.9
	c-36.1-0.1-72.1-0.1-108.2-0.5c-15.4,0.1-26.2-9-34.4-21.3l-1,1c4.2,18.2,17.8,25.7,34.6,29.2c2.5,38.3,34.1,61.4,65.3,78.1
	c11,6.2,22,7.5,33.3,0.8c23.5-13.7,49.6-26.7,62.5-52l-0.8-0.7c-7.8,2.8-15.5,5.6-23.3,8.4c8-5.7,15.2-11.6,21-19.5l-0.7-0.7
	c-4.9,3-9.7,6-15.2,9.4c1.5-4,2.7-7.2,3.7-10L306.7,307z M192.7,419.4c-2.6,5.1-7.8,8.4-4.4,14.2c11.8,25.9,21.6,52.8,33,78.8
	c10.8,20.3,19,43,32.2,61.5c5.3,2,12,10.5,17.5,7.2c4.4-3.4,10.6-5.1,13.4-10.1c9.6-19.4,19.8-38.5,30.1-57.4
	c9.3-28.1,22.4-55.1,31.9-83.1c-18.3,20.7-26.1,52.1-53.2,64.5c-9.6,4.2-19.3,8.6-29.8,5.5c-12.2-5-27.6-8.7-34.9-20.7
	C215.9,459.9,204.2,440.4,192.7,419.4z M157.6,234.8L157.6,234.8c-2,24,0.3,58,35.3,53.7c12.8-2.4,25.8-4.6,38.8-5.4
	c39.7-2.5,79.2-1.3,118.5,5.1c17.4,2.8,33.8-10.4,34.3-28.1c-1.6-27.2,11.8-77.1-30.7-76.6c-39,0.7-78.1,0-117.2,0.2
	C189.6,185.4,151.6,168.9,157.6,234.8z M233.1,380c-0.7,15.1-0.3,29.3-0.8,44.3c-1.5,7.9-10.4,11.9-15.4,17.6
	c13.2,26.2,32.4,61.1,67,48.3c20.6-6.6,28.2-27.2,39.1-44C290.1,428,261,405.8,233.1,380z M175.1,437.4c-9.4,1.5-14.5,9.9-22.3,14.4
	c-15.2,7-30.3,13.4-45.7,20.3c4.1,8.9,9.4,17.2,12.8,26.3c2.6,7.2,9.2,8.5,13.8,12.9l10.5-46c5.5,17.9,8.7,36.6,13.4,54.7
	c0.1,7.2,8.1,8.2,12.9,11.8l1.1-0.7C170.8,499.8,172,468.7,175.1,437.4L175.1,437.4z M307.2,133.3l-0.9,0.1v35.9
	c-32.7,0.6-65.5,0.3-98.2,0.1c-6.1-0.1-8.5,4.1-12.4,6.8h147.2c-2.5-3.9-4.8-7.5-7-10.8c-0.1,0.9-0.3,2.4-0.5,4.2
	c-5-1.1-18.7,2.7-19.9-2.7C312.1,155.7,309,144.7,307.2,133.3z M260.1,157.3c7-3.5,15.3-3.7,22.4-0.5c-1-12.2-2-23.4-2.9-34.5h-17
	C261.8,133.9,261,145.2,260.1,157.3z M404,460l-0.6,1.1c9.4,5.2,18.7,10.4,28.3,15.7c1.1-1.4,2.2-2.7,3.6-4.5
	C424.6,468.1,414.3,464.1,404,460L404,460z" />
	<path class="st1" d="M102.7,181.8c21.6-38.1,45.4-80.1,86.1-99.8C151.8,108.9,128.9,146.7,102.7,181.8z" />
	<path class="st1" d="M102,223.5c-4.8,30.5-0.4,61.1,6.7,90.9h1.7c4.1-13.6,8.2-27.2,12.5-41.3c14.1,34.2,32.5,65.9,50.9,97.6
	l1.2-0.4c-1.7-10.4-3.3-20.7-5-31.1l0.5-0.2c13.8,20,27.5,40,41.7,60.7c-28.5,0.5-23.5-5-41.5,18.2c-32.5-18-64-37.9-96.1-56.6
	c-1.8-0.9-2.9-2.7-2.8-4.7c0-37.2-0.2-74.3-0.2-111.5C70.1,239.1,96.5,228.3,102,223.5z" />
	<path class="st1" d="M283.9,345.6h-26.3C264.4,339.2,276.1,339,283.9,345.6z" />
	<path class="st1" d="M293.1,517.7c-23.6,18.9-18.8,27-42.5,2.7C265.2,522.6,278.5,521.7,293.1,517.7z" />
	<path class="st1"
		d="M188,193.9c-11.2,10.4-13.6,24.7-12.4,39.2c-1.2,20.5,0.3,30.1,22.3,35.9c-18.1-19-10.8-51.8,9.7-62.8
	c46.1-19.8,98.7-10.2,147.5-12.4c10.5-0.1,18.8,8.5,18.9,19.3c0.2,15,0.2,30,0,44.9c-0.2,11.8-9.7,20.3-22.3,20.4
	c-54.4,0.1-108.8,0.4-163.2,0.1c-11.9,0.4-19.8-10-20-18.8c-0.4-15.7-0.4-31.5,0.1-47.2C168.8,202.4,175.1,194.6,188,193.9z" />
</svg>